HIERARCHY
ROOT Root
{
  OFFSET 0.0 0.0 0.0
  CHANNELS 6 Xposition Yposition Zposition Zrotation Yrotation Xrotation
  JOINT Hips
  {
    OFFSET 0.0 100.0 0.0
    CHANNELS 6 Xposition Yposition Zposition Zrotation Yrotation Xrotation
    JOINT Spine1
    {
      OFFSET 5.003913 -0.037094 -0.013727
      CHANNELS 3 Zrotation Yrotation Xrotation
      JOINT Spine2
      {
        OFFSET 7.125363 -1e-06 0.0
        CHANNELS 3 Zrotation Yrotation Xrotation
        JOINT Chest
        {
          OFFSET 7.594027 1e-06 0.0
          CHANNELS 3 Zrotation Yrotation Xrotation
          JOINT Neck1
          {
            OFFSET 26.313086 -0.460272 -0.181672
            CHANNELS 3 Zrotation Yrotation Xrotation
            JOINT Neck2
            {
              OFFSET 8.045911 0.0 0.0
              CHANNELS 3 Zrotation Yrotation Xrotation
              JOINT Head
              {
                OFFSET 6.432774 0.0 0.0
                CHANNELS 3 Zrotation Yrotation Xrotation
                JOINT HeadEnd
                {
                  OFFSET 16.169773 0.06451 0.00362
                  CHANNELS 3 Zrotation Yrotation Xrotation
                }
                JOINT Jaw
                {
                  OFFSET 0.108741 3.12938 0.002639
                  CHANNELS 3 Zrotation Yrotation Xrotation
                }
                JOINT LeftEye
                {
                  OFFSET 4.45173 8.166359 3.206392
                  CHANNELS 3 Zrotation Yrotation Xrotation
                }
                JOINT RightEye
                {
                  OFFSET 4.436895 8.135758 -3.222429
                  CHANNELS 3 Zrotation Yrotation Xrotation
                }
              }
            }
          }
          JOINT LeftShoulder
          {
            OFFSET 23.218927 5.195579 1.621656
            CHANNELS 3 Zrotation Yrotation Xrotation
            JOINT LeftArm
            {
              OFFSET 15.902118 2e-06 -2e-06
              CHANNELS 3 Zrotation Yrotation Xrotation
              JOINT LeftForeArm
              {
                OFFSET 28.739307 0.0 -1e-06
                CHANNELS 3 Zrotation Yrotation Xrotation
                JOINT LeftHand
                {
                  OFFSET 27.093981 -4e-06 0.0
                  CHANNELS 3 Zrotation Yrotation Xrotation
                  JOINT LeftHandThumb1
                  {
                    OFFSET 2.276781 3.380274 0.83384
                    CHANNELS 3 Zrotation Yrotation Xrotation
                    JOINT LeftHandThumb2
                    {
                      OFFSET 4.705309 -1e-06 -1e-06
                      CHANNELS 3 Zrotation Yrotation Xrotation
                      JOINT LeftHandThumb3
                      {
                        OFFSET 2.798515 0.0 3e-06
                        CHANNELS 3 Zrotation Yrotation Xrotation
                        JOINT LeftHandThumbEnd
                        {
                          OFFSET 3.180793 4e-06 -4e-06
                          CHANNELS 3 Zrotation Yrotation Xrotation
                        }
                      }
                    }
                  }
                  JOINT LeftHandIndex1
                  {
                    OFFSET 3.247786 2.352677 0.137192
                    CHANNELS 3 Zrotation Yrotation Xrotation
                    JOINT LeftHandIndex2
                    {
                      OFFSET 6.367095 1e-06 0.0
                      CHANNELS 3 Zrotation Yrotation Xrotation
                      JOINT LeftHandIndex3
                      {
                        OFFSET 3.662364 0.0 0.0
                        CHANNELS 3 Zrotation Yrotation Xrotation
                        JOINT LeftHandIndex4
                        {
                          OFFSET 2.329242 4e-06 -4e-06
                          CHANNELS 3 Zrotation Yrotation Xrotation
                          JOINT LeftHandIndexEnd
                          {
                            OFFSET 2.767823 1e-06 0.0
                            CHANNELS 3 Zrotation Yrotation Xrotation
                          }
                        }
                      }
                    }
                  }
                  JOINT LeftHandMiddle1
                  {
                    OFFSET 3.163612 0.945023 -0.406112
                    CHANNELS 3 Zrotation Yrotation Xrotation
                    JOINT LeftHandMiddle2
                    {
                      OFFSET 6.276789 3e-06 0.0
                      CHANNELS 3 Zrotation Yrotation Xrotation
                      JOINT LeftHandMiddle3
                      {
                        OFFSET 4.35652 -1e-06 4e-06
                        CHANNELS 3 Zrotation Yrotation Xrotation
                        JOINT LeftHandMiddle4
                        {
                          OFFSET 2.996877 0.0 8e-06
                          CHANNELS 3 Zrotation Yrotation Xrotation
                          JOINT LeftHandMiddleEnd
                          {
                            OFFSET 2.323256 3e-06 -4e-06
                            CHANNELS 3 Zrotation Yrotation Xrotation
                          }
                        }
                      }
                    }
                  }
                  JOINT LeftHandRing1
                  {
                    OFFSET 2.882606 -0.309162 0.107445
                    CHANNELS 3 Zrotation Yrotation Xrotation
                    JOINT LeftHandRing2
                    {
                      OFFSET 6.033198 0.0 4e-06
                      CHANNELS 3 Zrotation Yrotation Xrotation
                      JOINT LeftHandRing3
                      {
                        OFFSET 4.350578 3e-06 0.0
                        CHANNELS 3 Zrotation Yrotation Xrotation
                        JOINT LeftHandRing4
                        {
                          OFFSET 2.651321 2e-06 -7e-06
                          CHANNELS 3 Zrotation Yrotation Xrotation
                          JOINT LeftHandRingEnd
                          {
                            OFFSET 1.937663 1e-06 -4e-06
                            CHANNELS 3 Zrotation Yrotation Xrotation
                          }
                        }
                      }
                    }
                  }
                  JOINT LeftHandPinky1
                  {
                    OFFSET 2.865315 -1.525436 0.575687
                    CHANNELS 3 Zrotation Yrotation Xrotation
                    JOINT LeftHandPinky2
                    {
                      OFFSET 5.54936 1e-06 -8e-06
                      CHANNELS 3 Zrotation Yrotation Xrotation
                      JOINT LeftHandPinky3
                      {
                        OFFSET 3.070974 0.0 -4e-06
                        CHANNELS 3 Zrotation Yrotation Xrotation
                        JOINT LeftHandPinky4
                        {
                          OFFSET 1.549672 1e-06 0.0
                          CHANNELS 3 Zrotation Yrotation Xrotation
                          JOINT LeftHandPinkyEnd
                          {
                            OFFSET 1.952123 0.0 0.0
                            CHANNELS 3 Zrotation Yrotation Xrotation
                          }
                        }
                      }
                    }
                  }
                }
              }
            }
          }
          JOINT RightShoulder
          {
            OFFSET 23.161716 5.296122 -1.380114
            CHANNELS 3 Zrotation Yrotation Xrotation
            JOINT RightArm
            {
              OFFSET -16.027195 -2e-06 1.1e-05
              CHANNELS 3 Zrotation Yrotation Xrotation
              JOINT RightForeArm
              {
                OFFSET -28.736639 4e-06 2e-06
                CHANNELS 3 Zrotation Yrotation Xrotation
                JOINT RightHand
                {
                  OFFSET -27.133619 6e-06 0.0
                  CHANNELS 3 Zrotation Yrotation Xrotation
                  JOINT RightHandThumb1
                  {
                    OFFSET -2.274328 -3.351035 -0.83067
                    CHANNELS 3 Zrotation Yrotation Xrotation
                    JOINT RightHandThumb2
                    {
                      OFFSET -4.703594 -3e-06 2e-06
                      CHANNELS 3 Zrotation Yrotation Xrotation
                      JOINT RightHandThumb3
                      {
                        OFFSET -2.794935 -4e-06 -3e-06
                        CHANNELS 3 Zrotation Yrotation Xrotation
                        JOINT RightHandThumbEnd
                        {
                          OFFSET -3.183852 4e-06 1e-06
                          CHANNELS 3 Zrotation Yrotation Xrotation
                        }
                      }
                    }
                  }
                  JOINT RightHandIndex1
                  {
                    OFFSET -3.253496 -2.33755 -0.127667
                    CHANNELS 3 Zrotation Yrotation Xrotation
                    JOINT RightHandIndex2
                    {
                      OFFSET -6.344434 0.0 0.0
                      CHANNELS 3 Zrotation Yrotation Xrotation
                      JOINT RightHandIndex3
                      {
                        OFFSET -3.654871 0.0 -8e-06
                        CHANNELS 3 Zrotation Yrotation Xrotation
                        JOINT RightHandIndex4
                        {
                          OFFSET -2.327586 -1e-06 0.0
                          CHANNELS 3 Zrotation Yrotation Xrotation
                          JOINT RightHandIndexEnd
                          {
                            OFFSET -2.770001 3e-06 8e-06
                            CHANNELS 3 Zrotation Yrotation Xrotation
                          }
                        }
                      }
                    }
                  }
                  JOINT RightHandMiddle1
                  {
                    OFFSET -3.168223 -0.944764 0.411762
                    CHANNELS 3 Zrotation Yrotation Xrotation
                    JOINT RightHandMiddle2
                    {
                      OFFSET -6.266691 -1e-06 -4e-06
                      CHANNELS 3 Zrotation Yrotation Xrotation
                      JOINT RightHandMiddle3
                      {
                        OFFSET -4.348901 0.0 0.0
                        CHANNELS 3 Zrotation Yrotation Xrotation
                        JOINT RightHandMiddle4
                        {
                          OFFSET -3.00024 2e-06 -4e-06
                          CHANNELS 3 Zrotation Yrotation Xrotation
                          JOINT RightHandMiddleEnd
                          {
                            OFFSET -2.321477 -4e-06 -4e-06
                            CHANNELS 3 Zrotation Yrotation Xrotation
                          }
                        }
                      }
                    }
                  }
                  JOINT RightHandRing1
                  {
                    OFFSET -2.885654 0.293261 -0.119232
                    CHANNELS 3 Zrotation Yrotation Xrotation
                    JOINT RightHandRing2
                    {
                      OFFSET -6.032835 -1e-06 -4e-06
                      CHANNELS 3 Zrotation Yrotation Xrotation
                      JOINT RightHandRing3
                      {
                        OFFSET -4.33881 0.0 -4e-06
                        CHANNELS 3 Zrotation Yrotation Xrotation
                        JOINT RightHandRing4
                        {
                          OFFSET -2.654903 -4e-06 -4e-06
                          CHANNELS 3 Zrotation Yrotation Xrotation
                          JOINT RightHandRingEnd
                          {
                            OFFSET -1.935122 0.0 4e-06
                            CHANNELS 3 Zrotation Yrotation Xrotation
                          }
                        }
                      }
                    }
                  }
                  JOINT RightHandPinky1
                  {
                    OFFSET -2.866241 1.503904 -0.60527
                    CHANNELS 3 Zrotation Yrotation Xrotation
                    JOINT RightHandPinky2
                    {
                      OFFSET -5.553177 -2e-06 0.0
                      CHANNELS 3 Zrotation Yrotation Xrotation
                      JOINT RightHandPinky3
                      {
                        OFFSET -3.062664 -1e-06 -4e-06
                        CHANNELS 3 Zrotation Yrotation Xrotation
                        JOINT RightHandPinky4
                        {
                          OFFSET -1.546529 2e-06 4e-06
                          CHANNELS 3 Zrotation Yrotation Xrotation
                          JOINT RightHandPinkyEnd
                          {
                            OFFSET -1.952341 0.0 -4e-06
                            CHANNELS 3 Zrotation Yrotation Xrotation
                          }
                        }
                      }
                    }
                  }
                }
              }
            }
          }
        }
      }
    }
    JOINT LeftLeg
    {
      OFFSET -8.443107 2.567604 10.043214
      CHANNELS 3 Zrotation Yrotation Xrotation
      JOINT LeftShin
      {
        OFFSET 43.229198 1e-06 -1e-06
        CHANNELS 3 Zrotation Yrotation Xrotation
        JOINT LeftFoot
        {
          OFFSET 42.298611 1e-06 1e-06
          CHANNELS 3 Zrotation Yrotation Xrotation
          JOINT LeftToeBase
          {
            OFFSET 14.165858 1e-06 0.0
            CHANNELS 3 Zrotation Yrotation Xrotation
            JOINT LeftToeEnd
            {
              OFFSET 6.7141 -0.234461 0.0
              CHANNELS 3 Zrotation Yrotation Xrotation
            }
          }
        }
      }
    }
    JOINT RightLeg
    {
      OFFSET -8.303923 2.592729 -10.047278
      CHANNELS 3 Zrotation Yrotation Xrotation
      JOINT RightShin
      {
        OFFSET -43.369682 0.0 1e-06
        CHANNELS 3 Zrotation Yrotation Xrotation
        JOINT RightFoot
        {
          OFFSET -42.260784 4e-06 2e-06
          CHANNELS 3 Zrotation Yrotation Xrotation
          JOINT RightToeBase
          {
            OFFSET -14.222245 -2e-06 -1e-06
            CHANNELS 3 Zrotation Yrotation Xrotation
            JOINT RightToeEnd
            {
              OFFSET -6.660062 0.232574 -2e-06
              CHANNELS 3 Zrotation Yrotation Xrotation
            }
          }
        }
      }
    }
  }
}
MOTION
Frames: 4
Frame Time: 0.03333333333333333
0.0 0.0 0.0 0.0 -0.0 0.0 1.157807 100.192932 0.166806 91.015396 1.933644 90.079613 -2.252743 0.524041 0.088532 -11.50838 -0.217918 0.453195 16.145603 -0.556634 -1.421085 19.546026 -3.260054 2.514606 -2.44331 -0.811968 0.361159 -26.761129 0.423751 -0.281201 7e-06 0.0 0.0 -0.004087 0.0272 0.020395 0.051233 0.07 0.031881 0.090502 -0.022241 0.015571 -142.310974 -67.100365 159.515564 31.645237 -43.468391 24.653561 31.743942 0.248194 -0.069608 -0.403472 4.545264 -4.005208 17.63662 -26.322729 52.411194 -19.46666 -14.395597 29.410385 0.0 -8.774822 1e-06 15.903655 -18.075258 6.027574 -0.609775 -1.795652 -3.889327 -4.807091 -11.046814 -2.937847 1e-06 -20.976019 -4e-06 -5.019974 -25.033566 -4.03188 6e-06 -0.0 -1e-06 -10.634536 -5.686973 -3.565585 10.573272 -17.922951 -3.1139 -0.0 -13.821211 -2e-06 -0.501778 -31.181511 -4.027018 -11.007812 -59.35799 6.683514 -13.982716 -7.1502 -2.875037 13.772728 -8.401491 -3.21824 0.347733 -34.211555 0.771652 -0.963029 -17.73337 2.621017 -1e-06 0.0 -0.0 -17.346424 -20.095222 -4.201777 21.757559 -1.638373 3.866426 1e-06 -6.338824 -2e-06 -1.697591 -22.591751 -6.194005 -0.0 -3e-06 -2e-06 32.047577 -74.645119 164.670334 37.72879 -49.949238 17.488174 26.387869 -0.245816 -0.069987 0.664244 -2.816722 17.24935 22.182108 -20.375895 49.933319 -16.701811 -16.743528 28.47653 -3e-06 -12.690598 1e-06 16.216316 -17.665644 2.678689 -0.105919 -1.513857 -4.275879 -5.039041 -5.612872 -2.953558 4e-06 -11.020523 -3e-06 -6.111297 -15.895332 -3.840472 -0.0 0.0 -0.0 -10.283369 -5.680288 -4.341837 11.028293 -11.302404 -2.372632 -1.384269 -14.238579 -6.32012 -0.625435 -26.924187 -3.827603 -4.651323 -50.222664 -3.618493 -13.708523 -7.363477 -3.72094 18.141146 -14.052738 -3.242675 7e-06 -18.78727 -3e-06 -0.429712 -8.456042 2.555503 1e-06 -0.0 0.0 -15.923532 -20.094482 -5.473585 30.419205 -7.190823 1.735926 0.0 -8.162922 -1e-06 -1.861898 -22.861467 -6.167943 -3e-06 -4e-06 -2e-06 -178.457428 -3.534687 -9.277064 7.068461 0.000115 0.004104 -74.81321 -5.423598 -8.923306 -6.359635 1.557703 2.097101 -0.999999 1e-06 0.0 -1.310876 -6.359105 -6.89893 12.62742 0.02265 -0.052683 -77.277229 -5.044368 -8.685187 -6.00797 0.737415 1.67373 -1.000003 -0.0 0.0 
0.0 0.0 0.0 0.0 -0.0 0.0 1.159006 100.214836 0.155358 91.025803 1.93955 90.097153 -2.251102 0.497444 0.07578 -11.496211 -0.204277 0.511928 16.140963 -0.534881 -1.466683 19.557037 -3.241177 2.515632 -2.434954 -0.796954 0.363827 -26.800333 0.389385 -0.285298 6e-06 0.0 -0.0 -0.003731 0.026018 0.032291 0.067297 0.069573 0.047546 0.10318 -0.023984 0.023975 -142.26947 -67.152679 159.569305 31.702614 -43.465343 24.435249 31.745428 0.179667 -0.105099 -0.291674 4.497264 -3.822341 17.636627 -26.322725 52.411186 -19.46666 -14.395598 29.410385 -0.0 -8.774822 -2e-06 15.88929 -18.0406 6.012191 -0.609776 -1.795653 -3.889328 -4.807089 -11.046812 -2.93785 2e-06 -20.976019 -3e-06 -5.019973 -25.03356 -4.031878 3e-06 -1e-06 -2e-06 -10.634535 -5.686972 -3.565592 10.573272 -17.922955 -3.1139 1e-06 -13.821211 -3e-06 -0.501777 -31.181507 -4.027014 -10.991714 -59.326061 6.733547 -13.982712 -7.150199 -2.875042 13.772727 -8.401493 -3.218241 0.347733 -34.211555 0.77165 -0.963029 -17.733374 2.621019 -0.0 1e-06 -1e-06 -17.346422 -20.095221 -4.201782 21.757561 -1.638374 3.866429 1e-06 -6.338824 -0.0 -1.697593 -22.591751 -6.194005 -3e-06 -3e-06 -1e-06 32.18058 -74.63739 164.649155 37.646385 -49.979294 17.407356 26.288256 -0.270257 -0.089253 0.733079 -2.898023 17.327951 22.182114 -20.375895 49.933323 -16.701811 -16.743528 28.476532 -2e-06 -12.6906 0.0 16.179798 -17.676041 2.690849 -0.105919 -1.513856 -4.275882 -5.039041 -5.612871 -2.953556 4e-06 -11.020524 -2e-06 -6.111296 -15.89533 -3.84047 0.0 -1e-06 -2e-06 -10.283369 -5.680288 -4.341838 11.028294 -11.302403 -2.372632 -1.38427 -14.238578 -6.320119 -0.625435 -26.924191 -3.827601 -4.69803 -50.290821 -3.557952 -13.708523 -7.363474 -3.72094 18.141146 -14.052739 -3.242672 7e-06 -18.78727 -2e-06 -0.429711 -8.456041 2.555503 -0.0 0.0 0.0 -15.923536 -20.094481 -5.473585 30.41921 -7.190825 1.735927 1e-06 -8.162925 0.0 -1.861901 -22.861469 -6.167942 -1e-06 -4e-06 -2e-06 -178.282288 -3.483608 -9.274808 6.690292 0.012099 0.051115 -74.604286 -5.376151 -8.997694 -6.40877 1.571277 2.101102 -0.999998 0.0 0.0 -1.157466 -6.344807 -6.843667 12.319823 0.017528 -0.054021 -77.134354 -5.097189 -8.669329 -6.035618 0.720841 1.672413 -1.000002 -0.0 0.0 
0.0 0.0 0.0 0.0 -0.0 0.0 1.158394 100.21949 0.131414 91.043205 1.955921 90.09568 -2.260554 0.476036 0.071187 -11.499854 -0.200147 0.539693 16.189785 -0.51803 -1.478649 19.571209 -3.230605 2.529988 -2.463371 -0.770569 0.328128 -26.793182 0.374128 -0.295621 7e-06 0.0 -0.0 -0.005985 0.025477 0.032488 0.061596 0.067599 0.051002 0.098412 -0.023176 0.020762 -142.265656 -67.206039 159.614258 31.671307 -43.451145 24.339788 31.779293 0.125346 -0.133376 -0.288459 4.420008 -3.83252 17.636631 -26.322731 52.411186 -19.466665 -14.395598 29.410395 -0.0 -8.774822 -0.0 15.901309 -18.041815 5.996921 -0.609776 -1.795654 -3.889328 -4.807088 -11.046811 -2.937849 4e-06 -20.976019 -2e-06 -5.019971 -25.033558 -4.03188 4e-06 -0.0 -0.0 -10.634533 -5.686973 -3.565586 10.573272 -17.922953 -3.1139 1e-06 -13.821212 -1e-06 -0.501778 -31.181507 -4.027016 -11.023068 -59.295788 6.745528 -13.982715 -7.150201 -2.875041 13.77273 -8.401493 -3.218243 0.347737 -34.211555 0.77165 -0.963028 -17.73337 2.62102 -1e-06 0.0 -1e-06 -17.346422 -20.095221 -4.201779 21.757561 -1.638375 3.866428 1e-06 -6.338823 1e-06 -1.697589 -22.591749 -6.194006 -3e-06 -3e-06 -2e-06 32.240189 -74.628014 164.674591 37.497471 -49.997471 17.374935 26.233334 -0.308937 -0.101644 0.747813 -2.937991 17.482479 22.182117 -20.375893 49.933311 -16.701817 -16.743528 28.476534 -3e-06 -12.690601 0.0 16.144726 -17.651583 2.703351 -0.10592 -1.513858 -4.275882 -5.039041 -5.612872 -2.953557 5e-06 -11.020527 -1e-06 -6.111298 -15.895338 -3.840471 1e-06 0.0 -3e-06 -10.283371 -5.680288 -4.34184 11.028296 -11.302407 -2.372632 -1.384269 -14.238585 -6.32012 -0.625437 -26.924198 -3.827603 -4.729608 -50.305943 -3.524856 -13.708525 -7.363478 -3.72094 18.14115 -14.052741 -3.242675 8e-06 -18.787271 -2e-06 -0.42971 -8.456045 2.555501 -1e-06 -1e-06 0.0 -15.923536 -20.09449 -5.473586 30.419218 -7.190827 1.735927 1e-06 -8.162925 -2e-06 -1.861899 -22.861473 -6.167945 -3e-06 -5e-06 -2e-06 -178.224136 -3.453622 -9.285243 6.573771 0.013608 0.081872 -74.53215 -5.321869 -9.038397 -6.393863 1.571934 2.104977 -1.0 0.0 -0.0 -1.145601 -6.358324 -6.786662 12.297544 0.019842 -0.064504 -77.108025 -5.136705 -8.669578 -6.009262 0.715984 1.673547 -1.000002 -0.0 0.0 
0.0 0.0 0.0 0.0 -0.0 0.0 1.16364 100.215721 0.107667 91.060616 1.983345 90.086983 -2.265078 0.453692 0.070984 -11.509743 -0.198269 0.541179 16.253035 -0.509725 -1.454726 19.597385 -3.223737 2.533437 -2.495293 -0.754988 0.298112 -26.789274 0.379739 -0.333811 6e-06 0.0 0.0 -0.009238 0.024694 0.028894 0.049422 0.064767 0.049703 0.087181 -0.021942 0.01444 -142.274368 -67.242554 159.663406 31.644417 -43.419842 24.322443 31.777678 0.095745 -0.137613 -0.320293 4.397096 -3.846497 17.636631 -26.322729 52.411194 -19.46666 -14.395597 29.410389 -1e-06 -8.774821 0.0 15.905608 -18.030979 5.989054 -0.609776 -1.795652 -3.889327 -4.807087 -11.04681 -2.93785 6e-06 -20.976015 -3e-06 -5.019969 -25.033548 -4.031878 4e-06 -1e-06 -1e-06 -10.634533 -5.68697 -3.565589 10.573274 -17.922951 -3.113898 2e-06 -13.821206 0.0 -0.501777 -31.181501 -4.027013 -11.033096 -59.27562 6.730747 -13.982712 -7.150196 -2.875042 13.772727 -8.401491 -3.21824 0.347736 -34.211544 0.771656 -0.963029 -17.733366 2.621022 0.0 -1e-06 1e-06 -17.346416 -20.095217 -4.201785 21.757557 -1.638376 3.866429 1e-06 -6.338822 1e-06 -1.697588 -22.591743 -6.194003 -3e-06 -2e-06 -3e-06 32.29166 -74.609978 164.68515 37.33503 -50.01923 17.517498 26.196033 -0.296467 -0.099222 0.754829 -2.993062 17.617743 22.182114 -20.375895 49.933327 -16.701813 -16.74353 28.476532 -3e-06 -12.690601 -0.0 16.104956 -17.621166 2.726289 -0.105919 -1.513855 -4.275882 -5.039041 -5.612871 -2.953557 6e-06 -11.020523 -2e-06 -6.111296 -15.89533 -3.840472 -1e-06 -1e-06 -2e-06 -10.283371 -5.680287 -4.341838 11.028296 -11.302404 -2.372635 -1.384269 -14.238578 -6.320121 -0.625436 -26.924187 -3.8276 -4.764983 -50.276917 -3.482321 -13.708524 -7.363472 -3.72094 18.14115 -14.052736 -3.242676 7e-06 -18.787266 -0.0 -0.429711 -8.456041 2.555503 -1e-06 -1e-06 -1e-06 -15.923534 -20.094481 -5.473585 30.419218 -7.190827 1.735924 1e-06 -8.162924 0.0 -1.861899 -22.861467 -6.167942 -1e-06 -6e-06 -2e-06 -178.21431 -3.433637 -9.317446 6.585426 0.010391 0.095703 -74.531509 -5.277142 -9.05757 -6.38848 1.567999 2.10528 -0.999999 0.0 0.0 -1.179455 -6.383196 -6.744969 12.389527 0.020695 -0.078796 -77.133522 -5.142186 -8.674633 -6.000582 0.709571 1.672355 -1.000002 -0.0 -0.0 
